<svg width="27" height="22" viewBox="0 0 27 22" fill="none" xmlns="http://www.w3.org/2000/svg">
<path fill-rule="evenodd" clip-rule="evenodd" d="M7.05694 5.80737C7.05694 4.64758 8.02056 3.70737 9.20926 3.70737C10.3979 3.70737 11.3616 4.64758 11.3616 5.80737C11.3616 6.96717 10.3979 7.90737 9.20926 7.90737C8.02056 7.90737 7.05694 6.96717 7.05694 5.80737ZM9.20926 2.30737C7.2281 2.30737 5.62206 3.87438 5.62206 5.80737C5.62206 7.74037 7.2281 9.30737 9.20926 9.30737C11.1904 9.30737 12.7964 7.74037 12.7964 5.80737C12.7964 3.87438 11.1904 2.30737 9.20926 2.30737ZM6.3395 10.0074C5.30695 10.0074 4.32723 10.3144 3.59309 10.9207C2.84757 11.5365 2.39359 12.432 2.39359 13.5074V14.5574C2.39359 15.1373 2.8754 15.6074 3.46974 15.6074H14.9488C15.5431 15.6074 16.0249 15.1373 16.0249 14.5574V13.5074C16.0249 12.432 15.5709 11.5365 14.8254 10.9207C14.0913 10.3144 13.1116 10.0074 12.079 10.0074H6.3395ZM3.82846 13.5074C3.82846 12.8431 4.0972 12.3386 4.52016 11.9893C4.9545 11.6305 5.58901 11.4074 6.3395 11.4074H12.079C12.8295 11.4074 13.464 11.6305 13.8984 11.9893C14.3213 12.3386 14.59 12.8431 14.59 13.5074V14.2074H3.82846V13.5074Z" fill="#86909C"/>
<path fill-rule="evenodd" clip-rule="evenodd" d="M15.8382 10.0073C15.8382 8.84753 16.8018 7.90732 17.9905 7.90732C19.1792 7.90732 20.1428 8.84753 20.1428 10.0073C20.1428 11.1671 19.1792 12.1073 17.9905 12.1073C16.8018 12.1073 15.8382 11.1671 15.8382 10.0073ZM17.9905 6.50732C16.0094 6.50732 14.4033 8.07433 14.4033 10.0073C14.4033 11.9403 16.0094 13.5073 17.9905 13.5073C19.9717 13.5073 21.5777 11.9403 21.5777 10.0073C21.5777 8.07433 19.9717 6.50732 17.9905 6.50732ZM15.1207 14.2073C14.0882 14.2073 13.1085 14.5143 12.3743 15.1207C11.6288 15.7364 11.1748 16.6319 11.1748 17.7073V18.7573C11.1748 19.3372 11.6566 19.8073 12.251 19.8073H23.73C24.3244 19.8073 24.8062 19.3372 24.8062 18.7573V17.7073C24.8062 16.6319 24.3522 15.7364 23.6067 15.1207C22.8725 14.5143 21.8928 14.2073 20.8603 14.2073H15.1207ZM12.6097 17.7073C12.6097 17.043 12.8785 16.5385 13.3014 16.1892C13.7357 15.8305 14.3703 15.6073 15.1207 15.6073H20.8603C21.6107 15.6073 22.2453 15.8305 22.6796 16.1892C23.1026 16.5385 23.3713 17.043 23.3713 17.7073V18.4073H12.6097V17.7073Z" fill="#86909C"/>
</svg>
