<svg width="27" height="22" viewBox="0 0 27 22" fill="none" xmlns="http://www.w3.org/2000/svg">
<path fill-rule="evenodd" clip-rule="evenodd" d="M7.05642 5.80737C7.05642 4.64758 8.02004 3.70737 9.20874 3.70737C10.3974 3.70737 11.3611 4.64758 11.3611 5.80737C11.3611 6.96717 10.3974 7.90737 9.20874 7.90737C8.02004 7.90737 7.05642 6.96717 7.05642 5.80737ZM9.20874 2.30737C7.22758 2.30737 5.62154 3.87438 5.62154 5.80737C5.62154 7.74037 7.22758 9.30737 9.20874 9.30737C11.1899 9.30737 12.7959 7.74037 12.7959 5.80737C12.7959 3.87438 11.1899 2.30737 9.20874 2.30737ZM6.33898 10.0074C5.30643 10.0074 4.32671 10.3144 3.59257 10.9207C2.84705 11.5365 2.39307 12.432 2.39307 13.5074V14.5574C2.39307 15.1373 2.87488 15.6074 3.46923 15.6074H14.9482C15.5426 15.6074 16.0244 15.1373 16.0244 14.5574V13.5074C16.0244 12.432 15.5704 11.5365 14.8249 10.9207C14.0908 10.3144 13.111 10.0074 12.0785 10.0074H6.33898ZM3.82794 13.5074C3.82794 12.8431 4.09668 12.3386 4.51964 11.9893C4.95398 11.6305 5.58849 11.4074 6.33898 11.4074H12.0785C12.829 11.4074 13.4635 11.6305 13.8978 11.9893C14.3208 12.3386 14.5895 12.8431 14.5895 13.5074V14.2074H3.82794V13.5074Z" fill="#86909C"/>
<path fill-rule="evenodd" clip-rule="evenodd" d="M15.8377 10.0073C15.8377 8.84753 16.8013 7.90732 17.99 7.90732C19.1787 7.90732 20.1423 8.84753 20.1423 10.0073C20.1423 11.1671 19.1787 12.1073 17.99 12.1073C16.8013 12.1073 15.8377 11.1671 15.8377 10.0073ZM17.99 6.50732C16.0088 6.50732 14.4028 8.07433 14.4028 10.0073C14.4028 11.9403 16.0088 13.5073 17.99 13.5073C19.9711 13.5073 21.5772 11.9403 21.5772 10.0073C21.5772 8.07433 19.9711 6.50732 17.99 6.50732ZM15.1202 14.2073C14.0877 14.2073 13.108 14.5143 12.3738 15.1207C11.6283 15.7364 11.1743 16.6319 11.1743 17.7073V18.7573C11.1743 19.3372 11.6561 19.8073 12.2505 19.8073H23.7295C24.3238 19.8073 24.8057 19.3372 24.8057 18.7573V17.7073C24.8057 16.6319 24.3517 15.7364 23.6062 15.1207C22.872 14.5143 21.8923 14.2073 20.8597 14.2073H15.1202ZM12.6092 17.7073C12.6092 17.043 12.8779 16.5385 13.3009 16.1892C13.7352 15.8305 14.3697 15.6073 15.1202 15.6073H20.8597C21.6102 15.6073 22.2447 15.8305 22.6791 16.1892C23.102 16.5385 23.3708 17.043 23.3708 17.7073V18.4073H12.6092V17.7073Z" fill="#86909C"/>
</svg>
