<svg width="124" height="124" viewBox="0 0 124 124" fill="none" xmlns="http://www.w3.org/2000/svg">
<path d="M89.9303 86.1762C86.2059 90.4139 81.5199 93.7078 76.2553 95.7884C70.9907 97.8691 65.297 98.6775 59.6397 98.1475L60.7336 85.676C64.4109 86.0205 68.1118 85.4951 71.5338 84.1427C74.9558 82.7902 78.0017 80.6492 80.4225 77.8947L89.9303 86.1762Z" fill="#2F80ED"/>
<path d="M55.2438 97.3867C49.7075 96.2994 44.5021 93.906 40.0532 90.402C35.6044 86.898 32.0384 82.383 29.6468 77.2261L40.9705 71.8971C42.525 75.249 44.8429 78.1838 47.7347 80.4614C50.6264 82.739 54.0099 84.2947 57.6085 85.0014L55.2438 97.3867Z" fill="#BB6BD9"/>
<path d="M27.2699 73.223C25.4822 67.8721 24.994 62.1647 25.8452 56.5676C26.6964 50.9704 28.8629 45.6425 32.1676 41.0193L42.3934 48.239C40.2454 51.244 38.8372 54.7072 38.2839 58.3453C37.7306 61.9835 38.0479 65.6933 39.21 69.1714L27.2699 73.223Z" fill="#FFDA7E"/>
<path d="M34.8359 37.8604C38.5602 33.6227 43.2462 30.3288 48.5108 28.2482C53.7754 26.1675 59.4692 25.3592 65.1264 25.8892L64.0325 38.3606C60.3553 38.0161 56.6543 38.5415 53.2323 39.894C49.8103 41.2464 46.7644 43.3874 44.3436 46.1419L34.8359 37.8604Z" fill="#56CCF2"/>
<path d="M68.7567 26.6138C74.293 27.7011 79.4984 30.0945 83.9473 33.5985C88.3961 37.1025 91.9621 41.6175 94.3537 46.7744L83.03 52.1034C81.4755 48.7514 79.1576 45.8167 76.2658 43.5391C73.3741 41.2615 69.9906 39.7058 66.3919 38.9991L68.7567 26.6138Z" fill="#DC8E1A"/>
<path d="M96.7294 50.7749C98.5175 56.1257 99.0061 61.8331 98.1552 67.4303C97.3044 73.0274 95.1383 78.3555 91.834 82.9789L81.6076 75.76C83.7554 72.7548 85.1634 69.2915 85.7164 65.6533C86.2694 62.0152 85.9519 58.3054 84.7896 54.8273L96.7294 50.7749Z" fill="#D45050"/>
</svg>
