<svg width="21" height="21" viewBox="0 0 21 21" fill="none" xmlns="http://www.w3.org/2000/svg">
<path fill-rule="evenodd" clip-rule="evenodd" d="M7.90006 6.80732C7.90006 5.42661 9.01935 4.30732 10.4001 4.30732C11.7808 4.30732 12.9001 5.42661 12.9001 6.80732C12.9001 8.18803 11.7808 9.30732 10.4001 9.30732C9.01935 9.30732 7.90006 8.18803 7.90006 6.80732ZM10.4001 2.64066C8.09888 2.64066 6.2334 4.50614 6.2334 6.80732C6.2334 9.10851 8.09888 10.974 10.4001 10.974C12.7013 10.974 14.5667 9.10851 14.5667 6.80732C14.5667 4.50614 12.7013 2.64066 10.4001 2.64066ZM7.06673 11.8073C5.86738 11.8073 4.7294 12.1728 3.87667 12.8946C3.01072 13.6277 2.4834 14.6938 2.4834 15.974V17.224C2.4834 17.9143 3.04304 18.474 3.7334 18.474H17.0667C17.7571 18.474 18.3167 17.9143 18.3167 17.224V15.974C18.3167 14.6938 17.7894 13.6277 16.9235 12.8946C16.0707 12.1728 14.9327 11.8073 13.7334 11.8073H7.06673ZM4.15007 15.974C4.15007 15.1831 4.46221 14.5826 4.9535 14.1667C5.458 13.7397 6.19501 13.474 7.06673 13.474H13.7334C14.6051 13.474 15.3421 13.7397 15.8466 14.1667C16.3379 14.5826 16.6501 15.1831 16.6501 15.974V16.8073H4.15007V15.974Z" fill="#86909C"/>
</svg>
