<svg width="124" height="124" viewBox="0 0 124 124" fill="none" xmlns="http://www.w3.org/2000/svg">
<path d="M89.93 86.1762C86.2057 90.4139 81.5197 93.7078 76.255 95.7884C70.9904 97.8691 65.2967 98.6775 59.6394 98.1475L60.7334 85.676C64.4106 86.0205 68.1115 85.4951 71.5335 84.1427C74.9555 82.7902 78.0015 80.6492 80.4223 77.8947L89.93 86.1762Z" fill="#2F80ED"/>
<path d="M55.2436 97.3867C49.7073 96.2994 44.5019 93.906 40.053 90.402C35.6042 86.898 32.0382 82.383 29.6466 77.2261L40.9703 71.8971C42.5248 75.249 44.8427 78.1838 47.7345 80.4614C50.6262 82.739 54.0097 84.2947 57.6084 85.0014L55.2436 97.3867Z" fill="#BB6BD9"/>
<path d="M27.27 73.223C25.4823 67.8721 24.9941 62.1647 25.8453 56.5676C26.6965 50.9704 28.863 45.6425 32.1677 41.0193L42.3935 48.239C40.2455 51.244 38.8373 54.7072 38.284 58.3453C37.7307 61.9835 38.048 65.6933 39.2101 69.1714L27.27 73.223Z" fill="#FFDA7E"/>
<path d="M34.8361 37.8604C38.5604 33.6227 43.2464 30.3288 48.511 28.2482C53.7757 26.1675 59.4694 25.3592 65.1267 25.8892L64.0327 38.3606C60.3555 38.0161 56.6546 38.5415 53.2326 39.894C49.8106 41.2464 46.7646 43.3874 44.3438 46.1419L34.8361 37.8604Z" fill="#56CCF2"/>
<path d="M68.7564 26.6138C74.2928 27.7011 79.4982 30.0945 83.947 33.5985C88.3959 37.1025 91.9619 41.6175 94.3535 46.7744L83.0298 52.1034C81.4752 48.7514 79.1573 45.8167 76.2656 43.5391C73.3738 41.2615 69.9903 39.7058 66.3917 38.9991L68.7564 26.6138Z" fill="#DC8E1A"/>
<path d="M96.7292 50.7749C98.5173 56.1257 99.0059 61.8331 98.1551 67.4303C97.3043 73.0274 95.1381 78.3555 91.8338 82.9789L81.6075 75.76C83.7553 72.7548 85.1632 69.2915 85.7163 65.6533C86.2693 62.0152 85.9517 58.3054 84.7895 54.8273L96.7292 50.7749Z" fill="#D45050"/>
</svg>
