<svg width="21" height="21" viewBox="0 0 21 21" fill="none" xmlns="http://www.w3.org/2000/svg">
<path fill-rule="evenodd" clip-rule="evenodd" d="M7.89994 6.80729C7.89994 5.42658 9.01923 4.30729 10.3999 4.30729C11.7807 4.30729 12.8999 5.42658 12.8999 6.80729C12.8999 8.188 11.7807 9.30729 10.3999 9.30729C9.01923 9.30729 7.89994 8.188 7.89994 6.80729ZM10.3999 2.64062C8.09876 2.64062 6.23328 4.50611 6.23328 6.80729C6.23328 9.10848 8.09876 10.974 10.3999 10.974C12.7011 10.974 14.5666 9.10848 14.5666 6.80729C14.5666 4.50611 12.7011 2.64062 10.3999 2.64062ZM7.06661 11.8073C5.86726 11.8073 4.72927 12.1728 3.87655 12.8946C3.01059 13.6276 2.48328 14.6937 2.48328 15.974V17.224C2.48328 17.9143 3.04292 18.474 3.73328 18.474H17.0666C17.757 18.474 18.3166 17.9143 18.3166 17.224V15.974C18.3166 14.6937 17.7893 13.6276 16.9233 12.8946C16.0706 12.1728 14.9326 11.8073 13.7333 11.8073H7.06661ZM4.14994 15.974C4.14994 15.1831 4.46209 14.5826 4.95337 14.1667C5.45788 13.7396 6.19489 13.474 7.06661 13.474H13.7333C14.605 13.474 15.342 13.7396 15.8465 14.1667C16.3378 14.5826 16.6499 15.1831 16.6499 15.974V16.8073H4.14994V15.974Z" fill="#86909C"/>
</svg>
