<svg width="124" height="124" viewBox="0 0 124 124" fill="none" xmlns="http://www.w3.org/2000/svg">
<path d="M89.9303 86.1762C86.2059 90.414 81.5199 93.7078 76.2553 95.7885C70.9907 97.8691 65.297 98.6775 59.6397 98.1475L60.7336 85.676C64.4109 86.0205 68.1118 85.4951 71.5338 84.1427C74.9558 82.7903 78.0017 80.6493 80.4225 77.8947L89.9303 86.1762Z" fill="#2F80ED"/>
<path d="M55.2438 97.3865C49.7075 96.2992 44.5021 93.9058 40.0532 90.4018C35.6044 86.8978 32.0384 82.3828 29.6468 77.2259L40.9705 71.8969C42.525 75.2489 44.8429 78.1836 47.7347 80.4612C50.6264 82.7388 54.0099 84.2945 57.6085 85.0012L55.2438 97.3865Z" fill="#BB6BD9"/>
<path d="M27.2699 73.2228C25.4822 67.8718 24.994 62.1645 25.8452 56.5673C26.6964 50.9702 28.8629 45.6423 32.1676 41.0191L42.3934 48.2388C40.2454 51.2438 38.8372 54.707 38.2839 58.3451C37.7306 61.9833 38.0479 65.6931 39.21 69.1712L27.2699 73.2228Z" fill="#FFDA7E"/>
<path d="M34.8359 37.8604C38.5602 33.6227 43.2462 30.3288 48.5108 28.2482C53.7754 26.1675 59.4692 25.3592 65.1264 25.8892L64.0325 38.3606C60.3553 38.0161 56.6543 38.5415 53.2323 39.894C49.8103 41.2464 46.7644 43.3874 44.3436 46.1419L34.8359 37.8604Z" fill="#56CCF2"/>
<path d="M68.7567 26.6136C74.293 27.7009 79.4984 30.0943 83.9473 33.5983C88.3961 37.1023 91.9621 41.6173 94.3537 46.7742L83.03 52.1032C81.4755 48.7512 79.1576 45.8165 76.2658 43.5389C73.3741 41.2613 69.9906 39.7056 66.3919 38.9989L68.7567 26.6136Z" fill="#DC8E1A"/>
<path d="M96.7294 50.7748C98.5175 56.1256 99.0061 61.833 98.1552 67.4302C97.3044 73.0273 95.1383 78.3555 91.834 82.9788L81.6076 75.7599C83.7554 72.7547 85.1634 69.2914 85.7164 65.6532C86.2694 62.0151 85.9519 58.3053 84.7896 54.8272L96.7294 50.7748Z" fill="#D45050"/>
</svg>
