<svg width="21" height="21" viewBox="0 0 21 21" fill="none" xmlns="http://www.w3.org/2000/svg">
<path fill-rule="evenodd" clip-rule="evenodd" d="M7.90001 6.80729C7.90001 5.42658 9.0193 4.30729 10.4 4.30729C11.7807 4.30729 12.9 5.42658 12.9 6.80729C12.9 8.188 11.7807 9.30729 10.4 9.30729C9.0193 9.30729 7.90001 8.188 7.90001 6.80729ZM10.4 2.64062C8.09883 2.64062 6.23335 4.50611 6.23335 6.80729C6.23335 9.10848 8.09883 10.974 10.4 10.974C12.7012 10.974 14.5667 9.10848 14.5667 6.80729C14.5667 4.50611 12.7012 2.64062 10.4 2.64062ZM7.06668 11.8073C5.86733 11.8073 4.72934 12.1728 3.87661 12.8946C3.01066 13.6276 2.48335 14.6937 2.48335 15.974V17.224C2.48335 17.9143 3.04299 18.474 3.73335 18.474H17.0667C17.757 18.474 18.3167 17.9143 18.3167 17.224V15.974C18.3167 14.6937 17.7894 13.6276 16.9234 12.8946C16.0707 12.1728 14.9327 11.8073 13.7333 11.8073H7.06668ZM4.15001 15.974C4.15001 15.1831 4.46216 14.5826 4.95344 14.1667C5.45795 13.7396 6.19496 13.474 7.06668 13.474H13.7333C14.6051 13.474 15.3421 13.7396 15.8466 14.1667C16.3379 14.5826 16.65 15.1831 16.65 15.974V16.8073H4.15001V15.974Z" fill="#86909C"/>
</svg>
