<svg width="27" height="22" viewBox="0 0 27 22" fill="none" xmlns="http://www.w3.org/2000/svg">
<path fill-rule="evenodd" clip-rule="evenodd" d="M7.05691 5.80713C7.05691 4.64733 8.02053 3.70713 9.20922 3.70713C10.3979 3.70713 11.3615 4.64733 11.3615 5.80713C11.3615 6.96693 10.3979 7.90713 9.20922 7.90713C8.02053 7.90713 7.05691 6.96693 7.05691 5.80713ZM9.20922 2.30713C7.22807 2.30713 5.62203 3.87413 5.62203 5.80713C5.62203 7.74013 7.22807 9.30713 9.20922 9.30713C11.1904 9.30713 12.7964 7.74013 12.7964 5.80713C12.7964 3.87413 11.1904 2.30713 9.20922 2.30713ZM6.33947 10.0071C5.30692 10.0071 4.32719 10.3141 3.59306 10.9205C2.84754 11.5362 2.39355 12.4317 2.39355 13.5071V14.5571C2.39355 15.137 2.87537 15.6071 3.46971 15.6071H14.9487C15.5431 15.6071 16.0249 15.137 16.0249 14.5571V13.5071C16.0249 12.4317 15.5709 11.5362 14.8254 10.9205C14.0913 10.3141 13.1115 10.0071 12.079 10.0071H6.33947ZM3.82843 13.5071C3.82843 12.8428 4.09717 12.3384 4.52013 11.989C4.95447 11.6303 5.58898 11.4071 6.33947 11.4071H12.079C12.8295 11.4071 13.464 11.6303 13.8983 11.989C14.3213 12.3384 14.59 12.8428 14.59 13.5071V14.2071H3.82843V13.5071Z" fill="#86909C"/>
<path fill-rule="evenodd" clip-rule="evenodd" d="M15.8382 10.0073C15.8382 8.84753 16.8018 7.90732 17.9905 7.90732C19.1792 7.90732 20.1428 8.84753 20.1428 10.0073C20.1428 11.1671 19.1792 12.1073 17.9905 12.1073C16.8018 12.1073 15.8382 11.1671 15.8382 10.0073ZM17.9905 6.50732C16.0093 6.50732 14.4033 8.07433 14.4033 10.0073C14.4033 11.9403 16.0093 13.5073 17.9905 13.5073C19.9716 13.5073 21.5777 11.9403 21.5777 10.0073C21.5777 8.07433 19.9716 6.50732 17.9905 6.50732ZM15.1207 14.2073C14.0882 14.2073 13.1084 14.5143 12.3743 15.1207C11.6288 15.7364 11.1748 16.6319 11.1748 17.7073V18.7573C11.1748 19.3372 11.6566 19.8073 12.251 19.8073H23.73C24.3243 19.8073 24.8061 19.3372 24.8061 18.7573V17.7073C24.8061 16.6319 24.3522 15.7364 23.6066 15.1207C22.8725 14.5143 21.8928 14.2073 20.8602 14.2073H15.1207ZM12.6097 17.7073C12.6097 17.043 12.8784 16.5385 13.3014 16.1892C13.7357 15.8305 14.3702 15.6073 15.1207 15.6073H20.8602C21.6107 15.6073 22.2452 15.8305 22.6796 16.1892C23.1025 16.5385 23.3713 17.043 23.3713 17.7073V18.4073H12.6097V17.7073Z" fill="#86909C"/>
</svg>
