<svg width="27" height="22" viewBox="0 0 27 22" fill="none" xmlns="http://www.w3.org/2000/svg">
<path fill-rule="evenodd" clip-rule="evenodd" d="M7.05703 5.80737C7.05703 4.64758 8.02066 3.70737 9.20935 3.70737C10.398 3.70737 11.3617 4.64758 11.3617 5.80737C11.3617 6.96717 10.398 7.90737 9.20935 7.90737C8.02066 7.90737 7.05703 6.96717 7.05703 5.80737ZM9.20935 2.30737C7.22819 2.30737 5.62215 3.87438 5.62215 5.80737C5.62215 7.74037 7.22819 9.30737 9.20935 9.30737C11.1905 9.30737 12.7965 7.74037 12.7965 5.80737C12.7965 3.87438 11.1905 2.30737 9.20935 2.30737ZM6.33959 10.0074C5.30704 10.0074 4.32732 10.3144 3.59318 10.9207C2.84766 11.5365 2.39368 12.432 2.39368 13.5074V14.5574C2.39368 15.1373 2.87549 15.6074 3.46984 15.6074H14.9489C15.5432 15.6074 16.025 15.1373 16.025 14.5574V13.5074C16.025 12.432 15.571 11.5365 14.8255 10.9207C14.0914 10.3144 13.1117 10.0074 12.0791 10.0074H6.33959ZM3.82855 13.5074C3.82855 12.8431 4.09729 12.3386 4.52025 11.9893C4.95459 11.6305 5.5891 11.4074 6.33959 11.4074H12.0791C12.8296 11.4074 13.4641 11.6305 13.8984 11.9893C14.3214 12.3386 14.5901 12.8431 14.5901 13.5074V14.2074H3.82855V13.5074Z" fill="#86909C"/>
<path fill-rule="evenodd" clip-rule="evenodd" d="M15.8383 10.0073C15.8383 8.84753 16.8019 7.90732 17.9906 7.90732C19.1793 7.90732 20.1429 8.84753 20.1429 10.0073C20.1429 11.1671 19.1793 12.1073 17.9906 12.1073C16.8019 12.1073 15.8383 11.1671 15.8383 10.0073ZM17.9906 6.50732C16.0094 6.50732 14.4034 8.07433 14.4034 10.0073C14.4034 11.9403 16.0094 13.5073 17.9906 13.5073C19.9717 13.5073 21.5778 11.9403 21.5778 10.0073C21.5778 8.07433 19.9717 6.50732 17.9906 6.50732ZM15.1208 14.2073C14.0883 14.2073 13.1086 14.5143 12.3744 15.1207C11.6289 15.7364 11.1749 16.6319 11.1749 17.7073V18.7573C11.1749 19.3372 11.6567 19.8073 12.2511 19.8073H23.7301C24.3245 19.8073 24.8063 19.3372 24.8063 18.7573V17.7073C24.8063 16.6319 24.3523 15.7364 23.6068 15.1207C22.8726 14.5143 21.8929 14.2073 20.8604 14.2073H15.1208ZM12.6098 17.7073C12.6098 17.043 12.8785 16.5385 13.3015 16.1892C13.7358 15.8305 14.3704 15.6073 15.1208 15.6073H20.8604C21.6108 15.6073 22.2454 15.8305 22.6797 16.1892C23.1027 16.5385 23.3714 17.043 23.3714 17.7073V18.4073H12.6098V17.7073Z" fill="#86909C"/>
</svg>
