<svg width="27" height="22" viewBox="0 0 27 22" fill="none" xmlns="http://www.w3.org/2000/svg">
<path fill-rule="evenodd" clip-rule="evenodd" d="M7.05715 5.80737C7.05715 4.64758 8.02078 3.70737 9.20947 3.70737C10.3982 3.70737 11.3618 4.64758 11.3618 5.80737C11.3618 6.96717 10.3982 7.90737 9.20947 7.90737C8.02078 7.90737 7.05715 6.96717 7.05715 5.80737ZM9.20947 2.30737C7.22832 2.30737 5.62227 3.87438 5.62227 5.80737C5.62227 7.74037 7.22832 9.30737 9.20947 9.30737C11.1906 9.30737 12.7967 7.74037 12.7967 5.80737C12.7967 3.87438 11.1906 2.30737 9.20947 2.30737ZM6.33971 10.0074C5.30716 10.0074 4.32744 10.3144 3.5933 10.9207C2.84778 11.5365 2.3938 12.432 2.3938 13.5074V14.5574C2.3938 15.1373 2.87561 15.6074 3.46996 15.6074H14.949C15.5433 15.6074 16.0251 15.1373 16.0251 14.5574V13.5074C16.0251 12.432 15.5712 11.5365 14.8256 10.9207C14.0915 10.3144 13.1118 10.0074 12.0792 10.0074H6.33971ZM3.82868 13.5074C3.82868 12.8431 4.09741 12.3386 4.52037 11.9893C4.95471 11.6305 5.58923 11.4074 6.33971 11.4074H12.0792C12.8297 11.4074 13.4642 11.6305 13.8986 11.9893C14.3215 12.3386 14.5903 12.8431 14.5903 13.5074V14.2074H3.82868V13.5074Z" fill="#86909C"/>
<path fill-rule="evenodd" clip-rule="evenodd" d="M15.8384 10.0073C15.8384 8.84753 16.802 7.90732 17.9907 7.90732C19.1794 7.90732 20.143 8.84753 20.143 10.0073C20.143 11.1671 19.1794 12.1073 17.9907 12.1073C16.802 12.1073 15.8384 11.1671 15.8384 10.0073ZM17.9907 6.50732C16.0096 6.50732 14.4035 8.07433 14.4035 10.0073C14.4035 11.9403 16.0096 13.5073 17.9907 13.5073C19.9719 13.5073 21.5779 11.9403 21.5779 10.0073C21.5779 8.07433 19.9719 6.50732 17.9907 6.50732ZM15.121 14.2073C14.0884 14.2073 13.1087 14.5143 12.3746 15.1207C11.629 15.7364 11.175 16.6319 11.175 17.7073V18.7573C11.175 19.3372 11.6569 19.8073 12.2512 19.8073H23.7302C24.3246 19.8073 24.8064 19.3372 24.8064 18.7573V17.7073C24.8064 16.6319 24.3524 15.7364 23.6069 15.1207C22.8727 14.5143 21.893 14.2073 20.8605 14.2073H15.121ZM12.6099 17.7073C12.6099 17.043 12.8787 16.5385 13.3016 16.1892C13.736 15.8305 14.3705 15.6073 15.121 15.6073H20.8605C21.611 15.6073 22.2455 15.8305 22.6798 16.1892C23.1028 16.5385 23.3715 17.043 23.3715 17.7073V18.4073H12.6099V17.7073Z" fill="#86909C"/>
</svg>
