<svg width="124" height="124" viewBox="0 0 124 124" fill="none" xmlns="http://www.w3.org/2000/svg">
<path d="M89.93 86.1762C86.2057 90.4139 81.5197 93.7078 76.255 95.7884C70.9904 97.8691 65.2967 98.6775 59.6394 98.1475L60.7334 85.676C64.4106 86.0205 68.1115 85.4951 71.5335 84.1427C74.9555 82.7902 78.0015 80.6492 80.4223 77.8947L89.93 86.1762Z" fill="#2F80ED"/>
<path d="M55.2436 97.3864C49.7072 96.2992 44.5018 93.9057 40.053 90.4017C35.6041 86.8978 32.0381 82.3828 29.6465 77.2259L40.9703 71.8968C42.5248 75.2488 44.8427 78.1836 47.7344 80.4611C50.6262 82.7387 54.0097 84.2945 57.6083 85.0012L55.2436 97.3864Z" fill="#BB6BD9"/>
<path d="M27.27 73.2228C25.4823 67.8718 24.9941 62.1644 25.8453 56.5673C26.6966 50.9702 28.8631 45.6422 32.1677 41.0191L42.3936 48.2387C40.2456 51.2438 38.8373 54.707 38.284 58.3451C37.7307 61.9832 38.0481 65.693 39.2101 69.1712L27.27 73.2228Z" fill="#FFDA7E"/>
<path d="M34.8361 37.8604C38.5604 33.6227 43.2465 30.3288 48.5111 28.2482C53.7757 26.1675 59.4694 25.3592 65.1267 25.8892L64.0327 38.3606C60.3555 38.0161 56.6546 38.5415 53.2326 39.894C49.8106 41.2464 46.7647 43.3874 44.3439 46.1419L34.8361 37.8604Z" fill="#56CCF2"/>
<path d="M68.7564 26.6136C74.2928 27.7008 79.4982 30.0943 83.947 33.5983C88.3959 37.1022 91.9619 41.6172 94.3535 46.7741L83.0298 52.1032C81.4752 48.7512 79.1573 45.8164 76.2656 43.5389C73.3738 41.2613 69.9903 39.7055 66.3917 38.9988L68.7564 26.6136Z" fill="#DC8E1A"/>
<path d="M96.7292 50.7747C98.5173 56.1256 99.0059 61.8329 98.1551 67.4301C97.3043 73.0273 95.1381 78.3554 91.8338 82.9788L81.6075 75.7599C83.7553 72.7546 85.1632 69.2914 85.7163 65.6532C86.2693 62.015 85.9517 58.3053 84.7895 54.8272L96.7292 50.7747Z" fill="#D45050"/>
</svg>
