<svg width="124" height="124" viewBox="0 0 124 124" fill="none" xmlns="http://www.w3.org/2000/svg">
<path d="M89.9303 86.1762C86.2059 90.414 81.5199 93.7078 76.2553 95.7885C70.9907 97.8691 65.297 98.6775 59.6397 98.1475L60.7336 85.676C64.4109 86.0205 68.1118 85.4951 71.5338 84.1427C74.9558 82.7903 78.0017 80.6493 80.4225 77.8947L89.9303 86.1762Z" fill="#2F80ED"/>
<path d="M55.2438 97.3865C49.7075 96.2992 44.5021 93.9058 40.0532 90.4018C35.6044 86.8978 32.0384 82.3828 29.6468 77.2259L40.9705 71.8969C42.525 75.2489 44.8429 78.1836 47.7347 80.4612C50.6264 82.7388 54.0099 84.2945 57.6085 85.0012L55.2438 97.3865Z" fill="#BB6BD9"/>
<path d="M27.2709 73.2228C25.4832 67.8718 24.995 62.1645 25.8462 56.5673C26.6974 50.9702 28.8639 45.6423 32.1685 41.0191L42.3944 48.2388C40.2464 51.2438 38.8382 54.707 38.2849 58.3451C37.7316 61.9833 38.0489 65.6931 39.211 69.1712L27.2709 73.2228Z" fill="#FFDA7E"/>
<path d="M34.8363 37.8604C38.5607 33.6227 43.2467 30.3288 48.5113 28.2482C53.7759 26.1675 59.4696 25.3592 65.1269 25.8892L64.033 38.3606C60.3557 38.0161 56.6548 38.5415 53.2328 39.894C49.8108 41.2464 46.7649 43.3874 44.3441 46.1419L34.8363 37.8604Z" fill="#56CCF2"/>
<path d="M68.7572 26.6136C74.2935 27.7009 79.4989 30.0943 83.9478 33.5983C88.3966 37.1023 91.9626 41.6173 94.3542 46.7742L83.0305 52.1032C81.476 48.7512 79.1581 45.8165 76.2663 43.5389C73.3746 41.2613 69.991 39.7056 66.3924 38.9989L68.7572 26.6136Z" fill="#DC8E1A"/>
<path d="M96.7298 50.7748C98.518 56.1256 99.0066 61.833 98.1557 67.4302C97.3049 73.0273 95.1388 78.3555 91.8344 82.9788L81.6081 75.7599C83.7559 72.7547 85.1638 69.2914 85.7169 65.6532C86.2699 62.0151 85.9523 58.3053 84.7901 54.8272L96.7298 50.7748Z" fill="#D45050"/>
</svg>
