<svg width="21" height="21" viewBox="0 0 21 21" fill="none" xmlns="http://www.w3.org/2000/svg">
<path fill-rule="evenodd" clip-rule="evenodd" d="M7.89909 6.80732C7.89909 5.42661 9.01838 4.30732 10.3991 4.30732C11.7798 4.30732 12.8991 5.42661 12.8991 6.80732C12.8991 8.18803 11.7798 9.30732 10.3991 9.30732C9.01838 9.30732 7.89909 8.18803 7.89909 6.80732ZM10.3991 2.64066C8.0979 2.64066 6.23242 4.50614 6.23242 6.80732C6.23242 9.10851 8.0979 10.974 10.3991 10.974C12.7003 10.974 14.5658 9.10851 14.5658 6.80732C14.5658 4.50614 12.7003 2.64066 10.3991 2.64066ZM7.06575 11.8073C5.86641 11.8073 4.72842 12.1728 3.87569 12.8946C3.00974 13.6277 2.48242 14.6938 2.48242 15.974V17.224C2.48242 17.9143 3.04207 18.474 3.73242 18.474H17.0658C17.7561 18.474 18.3158 17.9143 18.3158 17.224V15.974C18.3158 14.6938 17.7884 13.6277 16.9225 12.8946C16.0698 12.1728 14.9318 11.8073 13.7324 11.8073H7.06575ZM4.14909 15.974C4.14909 15.1831 4.46124 14.5826 4.95252 14.1667C5.45702 13.7397 6.19403 13.474 7.06575 13.474H13.7324C14.6041 13.474 15.3412 13.7397 15.8457 14.1667C16.3369 14.5826 16.6491 15.1831 16.6491 15.974V16.8073H4.14909V15.974Z" fill="#86909C"/>
</svg>
