<svg width="20" height="21" viewBox="0 0 20 21" fill="none" xmlns="http://www.w3.org/2000/svg">
<path fill-rule="evenodd" clip-rule="evenodd" d="M13.1902 5.49813C10.9122 3.22008 7.2187 3.22008 4.94064 5.49813C2.66258 7.77619 2.66258 11.4697 4.94064 13.7477C7.2187 16.0258 10.9122 16.0258 13.1902 13.7477C15.4683 11.4697 15.4683 7.77619 13.1902 5.49813ZM3.76213 4.31962C6.69106 1.39069 11.4398 1.39069 14.3687 4.31962C17.0985 7.04938 17.2841 11.3599 14.9256 14.3046L17.9043 17.2832L16.7257 18.4618L13.7471 15.4831C10.8024 17.8416 6.49189 17.656 3.76213 14.9262C0.833197 11.9973 0.833197 7.24856 3.76213 4.31962Z" fill="#86909C"/>
</svg>
