<svg width="48" height="49" viewBox="0 0 48 49" fill="none" xmlns="http://www.w3.org/2000/svg">
<path fill-rule="evenodd" clip-rule="evenodd" d="M31.6565 12.358C26.1892 6.89061 17.3249 6.89061 11.8576 12.358C6.39021 17.8253 6.39021 26.6896 11.8576 32.1569C17.3249 37.6243 26.1892 37.6243 31.6565 32.1569C37.1239 26.6896 37.1239 17.8253 31.6565 12.358ZM9.02913 9.52952C16.0586 2.50009 27.4555 2.50009 34.485 9.52952C41.0364 16.0809 41.4819 26.4261 35.8215 33.4935L42.9703 40.6422L40.1418 43.4706L32.9931 36.3219C25.9257 41.9823 15.5805 41.5368 9.02913 34.9854C1.99969 27.9559 1.99969 16.559 9.02913 9.52952Z" fill="#4E5969"/>
</svg>
