<svg width="20" height="21" viewBox="0 0 20 21" fill="none" xmlns="http://www.w3.org/2000/svg">
<path fill-rule="evenodd" clip-rule="evenodd" d="M13.1902 5.49826C10.9122 3.2202 7.2187 3.2202 4.94064 5.49826C2.66258 7.77632 2.66258 11.4698 4.94064 13.7478C7.2187 16.0259 10.9122 16.0259 13.1902 13.7478C15.4683 11.4698 15.4683 7.77632 13.1902 5.49826ZM3.76213 4.31975C6.69106 1.39081 11.4398 1.39081 14.3687 4.31975C17.0985 7.0495 17.2841 11.36 14.9256 14.3047L17.9043 17.2834L16.7257 18.4619L13.7471 15.4832C10.8024 17.8417 6.49189 17.6561 3.76213 14.9263C0.833197 11.9974 0.833197 7.24868 3.76213 4.31975Z" fill="#86909C"/>
</svg>
