<svg width="20" height="21" viewBox="0 0 20 21" fill="none" xmlns="http://www.w3.org/2000/svg">
<path fill-rule="evenodd" clip-rule="evenodd" d="M13.1902 5.49777C10.9122 3.21971 7.2187 3.21971 4.94064 5.49777C2.66258 7.77583 2.66258 11.4693 4.94064 13.7473C7.2187 16.0254 10.9122 16.0254 13.1902 13.7473C15.4683 11.4693 15.4683 7.77583 13.1902 5.49777ZM3.76213 4.31926C6.69106 1.39033 11.4398 1.39033 14.3687 4.31926C17.0985 7.04902 17.2841 11.3595 14.9256 14.3042L17.9043 17.2829L16.7257 18.4614L13.7471 15.4827C10.8024 17.8412 6.49189 17.6556 3.76213 14.9259C0.833197 11.9969 0.833197 7.24819 3.76213 4.31926Z" fill="#86909C"/>
</svg>
