<svg width="48" height="49" viewBox="0 0 48 49" fill="none" xmlns="http://www.w3.org/2000/svg">
<path fill-rule="evenodd" clip-rule="evenodd" d="M31.6563 12.358C26.189 6.89061 17.3247 6.89061 11.8573 12.358C6.39 17.8253 6.39 26.6896 11.8573 32.1569C17.3247 37.6243 26.189 37.6243 31.6563 32.1569C37.1237 26.6896 37.1237 17.8253 31.6563 12.358ZM9.02891 9.52952C16.0583 2.50009 27.4553 2.50009 34.4848 9.52952C41.0362 16.0809 41.4817 26.4261 35.8213 33.4935L42.97 40.6422L40.1416 43.4706L32.9929 36.3219C25.9255 41.9823 15.5803 41.5368 9.02891 34.9854C1.99948 27.9559 1.99948 16.559 9.02891 9.52952Z" fill="#4E5969"/>
</svg>
