<svg width="48" height="49" viewBox="0 0 48 49" fill="none" xmlns="http://www.w3.org/2000/svg">
<path fill-rule="evenodd" clip-rule="evenodd" d="M31.6566 12.3578C26.1892 6.89049 17.3249 6.89049 11.8576 12.3578C6.39024 17.8252 6.39024 26.6895 11.8576 32.1568C17.3249 37.6242 26.1892 37.6242 31.6566 32.1568C37.1239 26.6895 37.1239 17.8252 31.6566 12.3578ZM9.02916 9.5294C16.0586 2.49996 27.4556 2.49996 34.485 9.5294C41.0364 16.0808 41.4819 26.426 35.8215 33.4933L42.9703 40.6421L40.1419 43.4705L32.9931 36.3218C25.9257 41.9822 15.5806 41.5367 9.02916 34.9852C1.99972 27.9558 1.99972 16.5588 9.02916 9.5294Z" fill="#4E5969"/>
</svg>
