<svg width="437" height="476" viewBox="0 0 437 476" fill="none" xmlns="http://www.w3.org/2000/svg">
<path d="M218.734 237.021L52.5946 141.093C85.1826 85.6861 143.232 50.0257 207.58 45.8831L218.734 45.165L218.734 237.021Z" fill="#56CCF2"/>
<path d="M219.767 236.264L53.8842 332.631C21.651 277.073 19.2197 209.112 47.4007 151.405L52.2822 141.409L219.767 236.264Z" fill="#2F80ED"/>
<path d="M218.397 234.863L217.155 426.087C152.671 425.396 92.7821 392.898 57.2498 339.317L51.0908 330.03L218.397 234.863Z" fill="#FFDA7E"/>
<path d="M219.754 238.92L385.678 335.217C352.966 390.551 294.837 426.083 230.479 430.082L219.324 430.776L219.754 238.92Z" fill="#EB5757"/>
<path d="M217.556 237.046L383.77 141.246C415.812 196.913 418.009 264.882 389.63 322.492L384.714 332.472L217.556 237.046Z" fill="#23B45D"/>
<path d="M215.208 235.513L218.701 44.3163C283.172 45.7601 342.675 78.9554 377.574 132.947L383.623 142.305L215.208 235.513Z" fill="#BB6BD9"/>
<path d="M218.242 45.6543L218.338 236.366L384.259 141.093L218.434 236.531L384.259 331.97L218.338 236.697L218.242 427.409L218.146 236.697L52.2258 331.97L218.051 236.531L52.2258 141.093L218.146 236.366L218.242 45.6543Z" fill="#C4C4C4" stroke="#242E42" stroke-width="7.43243"/>
<ellipse cx="218.242" cy="236.531" rx="191.699" ry="190.877" stroke="#242E42" stroke-width="7.43"/>
</svg>
