<svg width="475" height="438" viewBox="0 0 475 438" fill="none" xmlns="http://www.w3.org/2000/svg">
<path d="M236.521 218.766L140.593 384.906C85.1861 352.318 49.5257 294.268 45.3831 229.92L44.665 218.766L236.521 218.766Z" fill="#56CCF2"/>
<path d="M235.764 217.733L332.131 383.616C276.573 415.849 208.612 418.28 150.905 390.099L140.909 385.218L235.764 217.733Z" fill="#2F80ED"/>
<path d="M234.363 219.103L425.587 220.345C424.896 284.829 392.398 344.718 338.817 380.25L329.53 386.409L234.363 219.103Z" fill="#FFDA7E"/>
<path d="M238.42 217.746L334.717 51.8223C390.051 84.5344 425.582 142.663 429.582 207.021L430.275 218.176L238.42 217.746Z" fill="#EB5757"/>
<path d="M236.546 219.944L140.746 53.7297C196.413 21.6879 264.382 19.4905 321.993 47.87L331.972 52.7859L236.546 219.944Z" fill="#23B45D"/>
<path d="M235.013 222.292L43.8163 218.798C45.2601 154.328 78.4554 94.8245 132.447 59.9258L141.805 53.8766L235.013 222.292Z" fill="#BB6BD9"/>
<path d="M45.1543 219.258L235.866 219.162L140.593 53.2413L236.031 219.066L331.47 53.2413L236.197 219.162L426.909 219.258L236.197 219.354L331.47 385.274L236.031 219.449L140.593 385.274L235.866 219.354L45.1543 219.258Z" fill="#C4C4C4" stroke="#242E42" stroke-width="7.43243"/>
<ellipse cx="236.031" cy="219.258" rx="191.699" ry="190.877" transform="rotate(-90 236.031 219.258)" stroke="#242E42" stroke-width="7.43"/>
</svg>
