<svg width="437" height="476" viewBox="0 0 437 476" fill="none" xmlns="http://www.w3.org/2000/svg">
<path d="M218.266 238.979L384.405 334.907C351.817 390.314 293.768 425.974 229.42 430.117L218.266 430.835L218.266 238.979Z" fill="#56CCF2"/>
<path d="M217.233 239.736L383.116 143.369C415.349 198.927 417.78 266.888 389.599 324.595L384.718 334.591L217.233 239.736Z" fill="#2F80ED"/>
<path d="M218.603 241.137L219.845 49.9129C284.329 50.6041 344.218 83.102 379.75 136.683L385.909 145.97L218.603 241.137Z" fill="#FFDA7E"/>
<path d="M217.246 237.08L51.3221 140.783C84.0342 85.4487 142.163 49.9174 206.521 45.9177L217.676 45.2244L217.246 237.08Z" fill="#EB5757"/>
<path d="M219.444 238.954L53.2297 334.754C21.1879 279.087 18.9905 211.118 47.37 153.508L52.2859 143.528L219.444 238.954Z" fill="#23B45D"/>
<path d="M221.792 240.487L218.299 431.684C153.828 430.24 94.3247 397.045 59.426 343.053L53.3768 333.695L221.792 240.487Z" fill="#BB6BD9"/>
<path d="M218.758 430.346L218.662 239.634L52.7413 334.907L218.566 239.469L52.7413 144.03L218.662 239.303L218.758 48.5915L218.854 239.303L384.774 144.03L218.949 239.469L384.774 334.907L218.854 239.634L218.758 430.346Z" fill="#C4C4C4" stroke="#242E42" stroke-width="7.43243"/>
<ellipse cx="218.758" cy="239.469" rx="191.699" ry="190.877" transform="rotate(-180 218.758 239.469)" stroke="#242E42" stroke-width="7.43"/>
</svg>
