<svg width="438" height="476" viewBox="0 0 438 476" fill="none" xmlns="http://www.w3.org/2000/svg">
<path d="M219.234 237.021L53.0946 141.093C85.6826 85.686 143.732 50.0256 208.08 45.883L219.234 45.1649L219.234 237.021Z" fill="#56CCF2"/>
<path d="M220.267 236.264L54.3842 332.631C22.151 277.073 19.7197 209.112 47.9007 151.405L52.7822 141.409L220.267 236.264Z" fill="#2F80ED"/>
<path d="M218.897 234.863L217.655 426.087C153.171 425.396 93.2821 392.898 57.7498 339.318L51.5908 330.03L218.897 234.863Z" fill="#FFDA7E"/>
<path d="M220.254 238.92L386.178 335.217C353.466 390.551 295.337 426.083 230.979 430.082L219.824 430.776L220.254 238.92Z" fill="#EB5757"/>
<path d="M218.056 237.046L384.27 141.246C416.312 196.913 418.509 264.882 390.13 322.493L385.214 332.472L218.056 237.046Z" fill="#23B45D"/>
<path d="M215.708 235.513L219.201 44.3163C283.672 45.7601 343.175 78.9554 378.074 132.947L384.123 142.305L215.708 235.513Z" fill="#BB6BD9"/>
<path d="M218.742 45.6543L218.838 236.366L384.759 141.093L218.934 236.531L384.759 331.97L218.838 236.697L218.742 427.409L218.646 236.697L52.7258 331.97L218.551 236.531L52.7258 141.093L218.646 236.366L218.742 45.6543Z" fill="#C4C4C4" stroke="#242E42" stroke-width="7.43243"/>
<ellipse cx="218.742" cy="236.531" rx="191.699" ry="190.877" stroke="#242E42" stroke-width="7.43"/>
</svg>
