<svg width="35" height="35" viewBox="0 0 35 35" fill="none" xmlns="http://www.w3.org/2000/svg">
<path fill-rule="evenodd" clip-rule="evenodd" d="M17.5 29.1668C23.7592 29.1668 28.8334 23.9435 28.8334 17.5002C28.8334 11.0568 23.7592 5.8335 17.5 5.8335C11.2408 5.8335 6.16669 11.0568 6.16669 17.5002C6.16669 23.9435 11.2408 29.1668 17.5 29.1668ZM31.6667 17.5002C31.6667 25.5543 25.3241 32.0835 17.5 32.0835C9.67598 32.0835 3.33335 25.5543 3.33335 17.5002C3.33335 9.44601 9.67599 2.91683 17.5 2.91683C25.3241 2.91683 31.6667 9.44601 31.6667 17.5002ZM16.0834 24.7918L16.0834 21.8751L18.9167 21.8751L18.9167 24.7918L16.0834 24.7918ZM18.9167 10.2085L18.9167 20.4168L16.0834 20.4168L16.0834 10.2085L18.9167 10.2085Z" fill="#D45050"/>
</svg>
