<svg width="35" height="35" viewBox="0 0 35 35" fill="none" xmlns="http://www.w3.org/2000/svg">
<path fill-rule="evenodd" clip-rule="evenodd" d="M17.5 29.1667C23.7592 29.1667 28.8334 23.9434 28.8334 17.5C28.8334 11.0567 23.7592 5.83338 17.5 5.83337C11.2408 5.83337 6.16669 11.0567 6.16669 17.5C6.16669 23.9434 11.2408 29.1667 17.5 29.1667ZM31.6667 17.5C31.6667 25.5542 25.3241 32.0834 17.5 32.0834C9.67598 32.0834 3.33335 25.5542 3.33335 17.5C3.33335 9.44589 9.67599 2.91671 17.5 2.91671C25.3241 2.91671 31.6667 9.44589 31.6667 17.5ZM16.0834 24.7917L16.0834 21.875L18.9167 21.875L18.9167 24.7917L16.0834 24.7917ZM18.9167 10.2083L18.9167 20.4167L16.0834 20.4167L16.0834 10.2083L18.9167 10.2083Z" fill="#D45050"/>
</svg>
